<svg xmlns="http://www.w3.org/2000/svg" width="302.1" height="35" viewBox="0 0 302.1 35"><rect class="svg__rect" x="0" y="0" width="95.53" height="35" fill="#3BC4F3"/><rect class="svg__rect" x="93.53" y="0" width="208.57" height="35" fill="#389AD5"/><path class="svg__text" d="M13.78 19.42L13.78 19.42L15.27 19.42Q15.27 20.15 15.75 20.55Q16.23 20.95 17.12 20.95L17.12 20.95Q17.90 20.95 18.29 20.63Q18.68 20.32 18.68 19.80L18.68 19.80Q18.68 19.24 18.28 18.94Q17.89 18.63 16.85 18.32Q15.82 18.01 15.21 17.63L15.21 17.63Q14.05 16.90 14.05 15.72L14.05 15.72Q14.05 14.69 14.89 14.02Q15.73 13.35 17.07 13.35L17.07 13.35Q17.96 13.35 18.66 13.68Q19.36 14.01 19.75 14.61Q20.15 15.22 20.15 15.96L20.15 15.96L18.68 15.96Q18.68 15.29 18.26 14.91Q17.84 14.54 17.06 14.54L17.06 14.54Q16.33 14.54 15.93 14.85Q15.53 15.16 15.53 15.71L15.53 15.71Q15.53 16.18 15.96 16.50Q16.40 16.81 17.39 17.10Q18.39 17.40 18.99 17.78Q19.60 18.16 19.88 18.65Q20.16 19.13 20.16 19.79L20.16 19.79Q20.16 20.86 19.34 21.49Q18.52 22.12 17.12 22.12L17.12 22.12Q16.20 22.12 15.42 21.77Q14.64 21.43 14.21 20.83Q13.78 20.22 13.78 19.42ZM26.01 22L24.54 22L24.54 13.47L26.01 13.47L26.01 22ZM36.40 22L30.82 22L30.82 13.47L36.36 13.47L36.36 14.66L32.31 14.66L32.31 17.02L35.81 17.02L35.81 18.19L32.31 18.19L32.31 20.82L36.40 20.82L36.40 22ZM42.07 22L40.60 22L40.60 13.47L42.52 13.47L44.98 20.01L47.43 13.47L49.35 13.47L49.35 22L47.87 22L47.87 19.19L48.02 15.43L45.50 22L44.44 22L41.93 15.43L42.07 19.19L42.07 22ZM59.67 22L54.09 22L54.09 13.47L59.63 13.47L59.63 14.66L55.57 14.66L55.57 17.02L59.08 17.02L59.08 18.19L55.57 18.19L55.57 20.82L59.67 20.82L59.67 22ZM65.35 22L63.86 22L63.86 13.47L65.35 13.47L69.16 19.54L69.16 13.47L70.63 13.47L70.63 22L69.15 22L65.35 15.95L65.35 22ZM74.94 19.42L74.94 19.42L76.42 19.42Q76.42 20.15 76.90 20.55Q77.38 20.95 78.28 20.95L78.28 20.95Q79.05 20.95 79.44 20.63Q79.83 20.32 79.83 19.80L79.83 19.80Q79.83 19.24 79.43 18.94Q79.04 18.63 78.01 18.32Q76.98 18.01 76.37 17.63L76.37 17.63Q75.20 16.90 75.20 15.72L75.20 15.72Q75.20 14.69 76.04 14.02Q76.88 13.35 78.22 13.35L78.22 13.35Q79.12 13.35 79.81 13.68Q80.51 14.01 80.91 14.61Q81.31 15.22 81.31 15.96L81.31 15.96L79.83 15.96Q79.83 15.29 79.41 14.91Q78.99 14.54 78.21 14.54L78.21 14.54Q77.49 14.54 77.09 14.85Q76.68 15.16 76.68 15.71L76.68 15.71Q76.68 16.18 77.12 16.50Q77.55 16.81 78.55 17.10Q79.54 17.40 80.15 17.78Q80.75 18.16 81.03 18.65Q81.31 19.13 81.31 19.79L81.31 19.79Q81.31 20.86 80.50 21.49Q79.68 22.12 78.28 22.12L78.28 22.12Q77.35 22.12 76.58 21.77Q75.80 21.43 75.37 20.83Q74.94 20.22 74.94 19.42Z" fill="#FFFFFF"/><path class="svg__text" d="M109.14 22L106.71 22L110.42 13.60L112.76 13.60L116.48 22L114.01 22L113.35 20.37L109.80 20.37L109.14 22ZM111.57 15.93L110.49 18.61L112.65 18.61L111.57 15.93ZM123.01 22L120.63 22L120.63 13.60L123.01 13.60L123.01 22ZM137.54 22L135.16 22L135.16 13.60L139.00 13.60Q140.14 13.60 140.98 13.98Q141.82 14.35 142.28 15.06Q142.73 15.76 142.73 16.71L142.73 16.71Q142.73 17.62 142.31 18.30Q141.88 18.98 141.09 19.36L141.09 19.36L142.90 22L140.35 22L138.83 19.77L137.54 19.77L137.54 22ZM137.54 15.47L137.54 17.93L138.85 17.93Q139.59 17.93 139.96 17.61Q140.33 17.29 140.33 16.71L140.33 16.71Q140.33 16.12 139.96 15.79Q139.59 15.47 138.85 15.47L138.85 15.47L137.54 15.47ZM148.94 22L146.51 22L150.22 13.60L152.57 13.60L156.28 22L153.81 22L153.15 20.37L149.60 20.37L148.94 22ZM151.38 15.93L150.29 18.61L152.45 18.61L151.38 15.93ZM164.41 22L160.43 22L160.43 13.60L164.41 13.60Q165.79 13.60 166.86 14.12Q167.92 14.63 168.51 15.58Q169.10 16.53 169.10 17.80L169.10 17.80Q169.10 19.07 168.51 20.02Q167.92 20.97 166.86 21.48Q165.79 22 164.41 22L164.41 22ZM162.81 15.50L162.81 20.10L164.31 20.10Q165.39 20.10 166.05 19.49Q166.70 18.88 166.70 17.80L166.70 17.80Q166.70 16.72 166.05 16.11Q165.39 15.50 164.31 15.50L164.31 15.50L162.81 15.50ZM180.37 17.80L180.37 17.80Q180.37 16.54 180.97 15.54Q181.57 14.55 182.62 13.99Q183.67 13.43 184.99 13.43L184.99 13.43Q186.15 13.43 187.07 13.84Q187.99 14.25 188.61 15.02L188.61 15.02L187.09 16.39Q186.28 15.40 185.11 15.40L185.11 15.40Q184.43 15.40 183.90 15.70Q183.36 16 183.07 16.54Q182.77 17.09 182.77 17.80L182.77 17.80Q182.77 18.51 183.07 19.05Q183.36 19.60 183.90 19.90Q184.43 20.20 185.11 20.20L185.11 20.20Q186.28 20.20 187.09 19.22L187.09 19.22L188.61 20.58Q188.00 21.35 187.07 21.76Q186.15 22.17 184.99 22.17L184.99 22.17Q183.67 22.17 182.62 21.61Q181.57 21.05 180.97 20.05Q180.37 19.06 180.37 17.80ZM192.71 17.80L192.71 17.80Q192.71 16.55 193.32 15.55Q193.92 14.56 194.98 14.00Q196.05 13.43 197.38 13.43L197.38 13.43Q198.71 13.43 199.77 14.00Q200.84 14.56 201.44 15.55Q202.05 16.55 202.05 17.80L202.05 17.80Q202.05 19.05 201.44 20.04Q200.84 21.04 199.77 21.60Q198.71 22.17 197.38 22.17L197.38 22.17Q196.05 22.17 194.98 21.60Q193.92 21.04 193.32 20.04Q192.71 19.05 192.71 17.80ZM195.11 17.80L195.11 17.80Q195.11 18.51 195.41 19.05Q195.71 19.60 196.23 19.90Q196.75 20.20 197.38 20.20L197.38 20.20Q198.02 20.20 198.53 19.90Q199.05 19.60 199.35 19.05Q199.65 18.51 199.65 17.80L199.65 17.80Q199.65 17.09 199.35 16.54Q199.05 16 198.53 15.70Q198.02 15.40 197.38 15.40L197.38 15.40Q196.74 15.40 196.23 15.70Q195.71 16 195.41 16.54Q195.11 17.09 195.11 17.80ZM208.97 22L206.78 22L206.78 13.60L208.73 13.60L211.69 18.45L214.57 13.60L216.52 13.60L216.54 22L214.36 22L214.34 17.55L212.18 21.17L211.12 21.17L208.97 17.67L208.97 22ZM224.09 22L221.71 22L221.71 13.60L225.55 13.60Q226.69 13.60 227.53 13.98Q228.37 14.35 228.83 15.06Q229.28 15.76 229.28 16.71L229.28 16.71Q229.28 17.66 228.83 18.35Q228.37 19.05 227.53 19.42Q226.69 19.80 225.55 19.80L225.55 19.80L224.09 19.80L224.09 22ZM224.09 15.47L224.09 17.93L225.40 17.93Q226.14 17.93 226.51 17.61Q226.88 17.29 226.88 16.71L226.88 16.71Q226.88 16.12 226.51 15.80Q226.14 15.47 225.40 15.47L225.40 15.47L224.09 15.47ZM235.45 22L233.03 22L236.74 13.60L239.08 13.60L242.79 22L240.33 22L239.67 20.37L236.11 20.37L235.45 22ZM237.89 15.93L236.81 18.61L238.97 18.61L237.89 15.93ZM249.28 22L246.95 22L246.95 13.60L248.91 13.60L252.61 18.07L252.61 13.60L254.94 13.60L254.94 22L252.99 22L249.28 17.52L249.28 22ZM262.48 22L260.10 22L260.10 13.60L262.48 13.60L262.48 22ZM267.23 17.80L267.23 17.80Q267.23 16.55 267.83 15.55Q268.43 14.56 269.50 14.00Q270.56 13.43 271.89 13.43L271.89 13.43Q273.22 13.43 274.29 14.00Q275.35 14.56 275.96 15.55Q276.56 16.55 276.56 17.80L276.56 17.80Q276.56 19.05 275.96 20.04Q275.35 21.04 274.29 21.60Q273.23 22.17 271.89 22.17L271.89 22.17Q270.56 22.17 269.50 21.60Q268.43 21.04 267.83 20.04Q267.23 19.05 267.23 17.80ZM269.62 17.80L269.62 17.80Q269.62 18.51 269.93 19.05Q270.23 19.60 270.74 19.90Q271.26 20.20 271.89 20.20L271.89 20.20Q272.53 20.20 273.05 19.90Q273.56 19.60 273.86 19.05Q274.16 18.51 274.16 17.80L274.16 17.80Q274.16 17.09 273.86 16.54Q273.56 16 273.05 15.70Q272.53 15.40 271.89 15.40L271.89 15.40Q271.25 15.40 270.74 15.70Q270.23 16 269.93 16.54Q269.62 17.09 269.62 17.80ZM283.62 22L281.29 22L281.29 13.60L283.25 13.60L286.96 18.07L286.96 13.60L289.28 13.60L289.28 22L287.33 22L283.62 17.52L283.62 22Z" fill="#FFFFFF" x="106.53"/></svg>